<svg width="282" height="299" viewBox="0 0 282 299" fill="none" xmlns="http://www.w3.org/2000/svg">
<rect width="282" height="299" fill="#E5E5E5"/>
<rect width="282" height="299" fill="white"/>
<path d="M147.775 19.5521C135.621 32.4385 130.535 49.9717 132.497 66.7567C132.889 70.1055 135.357 72.722 138.515 73.1372C154.346 75.2176 170.882 69.8249 183.036 56.9385C195.19 44.052 200.276 26.5188 198.314 9.73383C197.922 6.38504 195.454 3.76852 192.296 3.35334C176.465 1.27518 159.929 6.66563 147.775 19.5521V19.5521Z" fill="#3EA05B"/>
<path d="M134.47 71.0476C135.531 72.1722 136.936 72.9296 138.515 73.1372C154.346 75.2176 170.882 69.8272 183.036 56.9385C195.192 44.052 200.276 26.5188 198.314 9.73383C198.118 8.05943 197.403 6.56982 196.343 5.44519L134.47 71.0476Z" fill="#2C7340"/>
<path d="M91.1328 76.3719C103.287 89.2584 119.823 94.6511 135.654 92.5684C138.812 92.1532 141.28 89.539 141.669 86.1902C143.631 69.4052 138.547 51.872 126.394 38.9855C114.24 26.0991 97.7034 20.7064 81.8728 22.7868C78.7144 23.202 76.2466 25.8185 75.8551 29.1673C73.8929 45.9523 78.979 63.4855 91.1328 76.3719V76.3719Z" fill="#3EA05B"/>
<path d="M139.698 90.4788C140.759 89.3542 141.473 87.8646 141.671 86.1902C143.633 69.4029 138.547 51.872 126.394 38.9832C114.24 26.0968 97.7034 20.7064 81.8728 22.7868C80.2936 22.9944 78.8865 23.7517 77.8258 24.8764L139.698 90.4788Z" fill="#2C7340"/>
<path d="M171.622 80.1427C171.622 69.647 163.539 61.1382 153.569 61.1382C143.597 61.1382 135.514 69.647 135.514 80.1427C135.514 90.6362 143.597 99.145 153.569 99.145C163.539 99.145 171.622 90.6362 171.622 80.1427V80.1427Z" fill="#F07A97"/>
<path d="M171.622 80.1427C171.622 90.6362 163.539 99.145 153.569 99.145V61.1382C163.539 61.1382 171.622 69.647 171.622 80.1427V80.1427Z" fill="#E6486D"/>
<path d="M71.6618 77.7247H8.26172C3.69841 77.7247 0 81.6483 0 86.4844C0 91.3228 3.69841 95.2442 8.26172 95.2442H71.6618C76.2251 95.2442 79.9235 91.3228 79.9235 86.4844C79.9235 81.6483 76.2251 77.7247 71.6618 77.7247Z" fill="#56C1CB"/>
<path d="M273.738 77.7247H210.177C205.614 77.7247 201.915 81.6483 201.915 86.4844C201.915 91.3228 205.614 95.2442 210.177 95.2442H273.738C278.302 95.2442 282 91.3228 282 86.4844C282 81.6483 278.302 77.7247 273.738 77.7247Z" fill="#56C1CB"/>
<path d="M146.015 145.581C144.683 142.424 141.729 140.393 138.47 140.393C138.453 140.393 138.433 140.393 138.414 140.393C135.135 140.419 132.179 142.497 130.882 145.69L111.185 194.22C109.38 198.664 111.316 203.817 115.507 205.729C116.572 206.215 117.68 206.445 118.769 206.445C121.97 206.445 125.017 204.461 126.361 201.146L127.415 198.55H150.228L151.368 201.256C153.229 205.674 158.113 207.654 162.28 205.683C166.446 203.71 168.315 198.53 166.456 194.113L146.015 145.581ZM134.526 181.031L138.61 170.968L142.848 181.031H134.526Z" fill="#FBD43A"/>
<path d="M166.454 194.111L146.013 145.581C144.683 142.424 141.727 140.393 138.47 140.393C138.45 140.393 138.433 140.393 138.414 140.393C138.47 140.393 138.61 170.968 138.61 170.968L142.848 181.031H138.84V198.55H150.228L151.366 201.256C153.227 205.674 158.113 207.654 162.28 205.683C166.446 203.71 168.315 198.53 166.454 194.111V194.111Z" fill="#FB8626"/>
<path d="M97.5851 140.202C93.0239 140.202 89.3234 144.123 89.3234 148.962V170.346H72.0598V148.962C72.0598 144.123 68.3614 140.202 63.7981 140.202C59.237 140.202 55.5364 144.123 55.5364 148.962V197.683C55.5364 202.522 59.237 206.443 63.7981 206.443C68.3614 206.443 72.0598 202.522 72.0598 197.683V187.865H89.3234V197.683C89.3234 202.522 93.0239 206.443 97.5851 206.443C102.148 206.443 105.847 202.522 105.847 197.683V148.962C105.847 144.123 102.148 140.202 97.5851 140.202Z" fill="#FBD43A"/>
<path d="M214.871 139.841C210.31 139.841 206.61 143.763 206.61 148.601V172.358L185 143.19C182.825 140.254 179.133 139.102 175.802 140.323C172.474 141.543 170.241 144.867 170.241 148.601V197.688C170.241 202.526 173.941 206.448 178.503 206.448C183.066 206.448 186.764 202.526 186.764 197.688V173.932L208.376 203.099C209.972 205.255 212.386 206.448 214.874 206.448C215.775 206.448 216.687 206.29 217.572 205.966C220.902 204.746 223.133 201.422 223.133 197.688V148.601C223.133 143.763 219.435 139.841 214.871 139.841V139.841Z" fill="#FB8626"/>
<path d="M281.006 193.696L268.213 162.713L277.183 156.104C280.926 153.344 281.856 147.892 279.259 143.92C276.662 139.949 271.52 138.959 267.77 141.705L253.204 152.381C252.959 152.561 252.727 152.753 252.505 152.956L246.896 157.087V148.708C246.896 143.87 243.198 139.949 238.635 139.949C234.071 139.949 230.373 143.87 230.373 148.708V197.43C230.373 202.264 234.067 206.185 238.626 206.19H238.635C243.191 206.19 246.888 202.278 246.896 197.448L246.933 178.396L254.383 172.905L265.868 200.722C267.699 205.152 272.57 207.173 276.75 205.234C280.931 203.293 282.835 198.128 281.006 193.696V193.696Z" fill="#FB8626"/>
<path d="M107.488 230.667C103.835 227.765 98.6587 228.552 95.922 232.424L84.7386 248.241L73.5573 232.424C70.8206 228.552 65.6419 227.765 61.9909 230.667C58.3398 233.569 57.5975 239.059 60.3342 242.931L76.4768 265.765V286.691C76.4768 291.529 80.1752 295.45 84.7386 295.45C89.3019 295.45 93.0003 291.529 93.0003 286.691V265.768L109.143 242.931C111.88 239.059 111.139 233.569 107.488 230.667V230.667Z" fill="#FBD43A"/>
<path d="M139.619 228.557C132.603 228.5 125.793 231.372 120.944 236.466C116.344 241.3 113.809 247.671 113.809 254.407V269.684C113.809 283.987 125.32 295.736 139.466 295.875H139.709C146.643 295.875 153.35 293 158.143 287.964C162.743 283.132 165.275 276.761 165.275 270.022V254.747C165.277 240.444 153.767 228.694 139.619 228.557V228.557ZM148.754 270.022C148.754 272.62 147.536 274.445 146.514 275.52C144.795 277.324 142.321 278.355 139.713 278.355C139.681 278.355 139.651 278.355 139.619 278.355C134.498 278.305 130.333 274.416 130.333 269.684V254.407C130.333 251.809 131.551 249.984 132.573 248.912C134.292 247.105 136.766 246.074 139.371 246.074C139.404 246.074 139.436 246.074 139.468 246.076C144.589 246.124 148.754 250.016 148.754 254.747V270.022Z" fill="#FBD43A"/>
<path d="M139.619 228.557L139.371 246.074C139.404 246.074 139.436 246.074 139.468 246.076C144.589 246.124 148.754 250.016 148.754 254.747V270.022C148.754 272.62 147.536 274.445 146.514 275.52C144.795 277.324 142.321 278.355 139.713 278.355C139.681 278.355 139.651 278.355 139.619 278.355L139.468 295.875H139.709C146.643 295.875 153.352 293 158.143 287.964C162.743 283.132 165.275 276.761 165.277 270.022V254.747C165.277 240.444 153.767 228.694 139.619 228.557V228.557Z" fill="#FB8626"/>
<path d="M216.156 228.662C211.593 228.662 207.894 232.585 207.894 237.422V270.022C207.894 272.62 206.676 274.445 205.654 275.52C203.914 277.347 201.403 278.362 198.759 278.355C193.638 278.305 189.473 274.416 189.473 269.684V237.084C189.473 232.246 185.775 228.324 181.211 228.324C176.65 228.324 172.95 232.246 172.95 237.084V269.684C172.95 283.987 184.46 295.738 198.608 295.875H198.851C205.783 295.875 212.492 293 217.285 287.964C221.883 283.132 224.418 276.761 224.418 270.024V237.424C224.418 232.585 220.719 228.662 216.156 228.662V228.662Z" fill="#FB8626"/>
<path d="M147.396 101.022C147.396 86.9247 136.54 75.4959 123.145 75.4959C109.75 75.4959 98.8932 86.9247 98.8932 101.022C98.8932 115.122 109.75 126.551 123.145 126.551C136.54 126.551 147.396 115.122 147.396 101.022Z" fill="#F07A97"/>
<path d="M147.396 101.022C147.396 115.122 136.54 126.551 123.145 126.551V75.4959C136.538 75.4959 147.396 86.9247 147.396 101.022Z" fill="#E6486D"/>
<path d="M42.4769 139.912H8.8835C4.32234 139.912 0.62178 143.834 0.62178 148.672C0.62178 153.508 4.32234 157.432 8.8835 157.432H17.4185V197.683C17.4185 202.522 21.1169 206.443 25.6802 206.443C30.2435 206.443 33.9419 202.522 33.9419 197.683V157.432H42.4769C47.0402 157.432 50.7386 153.508 50.7386 148.672C50.7386 143.834 47.0402 139.912 42.4769 139.912V139.912Z" fill="#FBD43A"/>
</svg>
